<svg width="26" height="24" viewBox="0 0 26 24" fill="none"
  xmlns="http://www.w3.org/2000/svg">
  <path d="M3.8548 14.6237C2.74843 14.6237 1.82762 14.2876 1.09237 13.6154C0.364123 12.9362 0 12.0644 0 11C0 9.92864 0.364123 9.05684 1.09237 8.38461C1.82061 7.71239 2.74142 7.37627 3.8548 7.37627C4.69508 7.37627 5.37081 7.57234 5.88198 7.96447C6.40016 8.3566 6.78529 8.83977 7.03737 9.41396L5.20976 10.2647C5.11873 9.98465 4.94717 9.74657 4.69508 9.55051C4.443 9.34744 4.1629 9.24591 3.8548 9.24591C3.35063 9.24591 2.94099 9.41396 2.62589 9.75008C2.31078 10.0862 2.15323 10.5028 2.15323 11C2.15323 11.4972 2.31078 11.9138 2.62589 12.2499C2.94099 12.586 3.35063 12.7541 3.8548 12.7541C4.1629 12.7541 4.443 12.6561 4.69508 12.46C4.94717 12.2569 5.11873 12.0153 5.20976 11.7352L7.03737 12.5755C6.92534 12.8346 6.78529 13.0762 6.61723 13.3003C6.44918 13.5173 6.2391 13.7309 5.98702 13.941C5.73493 14.1511 5.42333 14.3191 5.0522 14.4452C4.68808 14.5642 4.28895 14.6237 3.8548 14.6237Z" fill="#84D52C"/>
  <path d="M12.1029 14.4977H7.70189V7.49181H11.9558C12.628 7.49181 13.1427 7.67387 13.4998 8.038C13.857 8.40212 14.0355 8.81526 14.0355 9.27742C14.0355 9.70456 13.9235 10.0617 13.6994 10.3488C13.4753 10.6289 13.1882 10.8074 12.8381 10.8845C13.2233 10.9405 13.5419 11.1295 13.7939 11.4516C14.046 11.7668 14.1721 12.1484 14.1721 12.5965C14.1721 13.1217 13.9935 13.5699 13.6364 13.941C13.2793 14.3121 12.7681 14.4977 12.1029 14.4977ZM11.4622 10.0757C11.5742 10.0757 11.6722 10.0372 11.7563 9.96015C11.8403 9.87612 11.8823 9.77458 11.8823 9.65554C11.8823 9.5365 11.8403 9.44197 11.7563 9.37195C11.6722 9.29492 11.5742 9.25641 11.4622 9.25641H9.8236V10.0757H11.4622ZM11.5252 12.7331C11.6792 12.7331 11.7983 12.6946 11.8823 12.6175C11.9733 12.5335 12.0188 12.425 12.0188 12.2919C12.0188 12.1659 11.9733 12.0609 11.8823 11.9768C11.7913 11.8858 11.6722 11.8403 11.5252 11.8403H9.8236V12.7331H11.5252Z" fill="#84D52C"/>
  <path d="M18.1662 14.4977H15.0256V7.49181H18.1557C19.2901 7.49181 20.2144 7.80342 20.9286 8.42663C21.6429 9.04284 22 9.89712 22 10.9895C22 12.0819 21.6429 12.9397 20.9286 13.5629C20.2144 14.1861 19.2936 14.4977 18.1662 14.4977ZM18.1557 12.6491C18.6669 12.6491 19.0765 12.488 19.3846 12.1659C19.6927 11.8438 19.8468 11.4516 19.8468 10.9895C19.8468 10.4923 19.7032 10.0932 19.4161 9.79209C19.129 9.49099 18.7124 9.34044 18.1662 9.34044H17.1474V12.6491H18.1557Z" fill="#84D52C"/>
  <path d="M19.75 13.8652L22.1461 16.4354L21.3437 17.7462L25.2913 20.8977M25.4197 18.899L25.2723 21.1919M23.2499 21.0733L25.7089 20.7631" stroke="#FF6D59" stroke-width="1.06906"/>
</svg>
