<svg width="27" height="24" viewBox="0 0 27 24" fill="none"
  xmlns="http://www.w3.org/2000/svg">
  <path d="M4.26689 16.0258H2.00465V10.0899H0V7.96216H6.26034V10.0899H4.26689V16.0258Z" fill="#84D52C"/>
  <path d="M14.2647 16.0258H12.0025V12.943H9.32585V16.0258H7.06362V7.96216H9.32585V10.8152H12.0025V7.96216H14.2647V16.0258Z" fill="#84D52C"/>
  <path d="M19.1809 16.1708C18.0012 16.1708 17.0194 15.784 16.2355 15.0103C15.459 14.2285 15.0708 13.2251 15.0708 12C15.0708 10.7669 15.459 9.76348 16.2355 8.98976C17.012 8.21604 17.9938 7.82918 19.1809 7.82918C20.0768 7.82918 20.7973 8.05485 21.3423 8.50618C21.8948 8.95752 22.3054 9.51363 22.5742 10.1745L20.6256 11.1538C20.5285 10.8314 20.3456 10.5573 20.0768 10.3317C19.808 10.0979 19.5094 9.98108 19.1809 9.98108C18.6433 9.98108 18.2065 10.1745 17.8706 10.5614C17.5346 10.9482 17.3666 11.4278 17.3666 12C17.3666 12.5722 17.5346 13.0518 17.8706 13.4386C18.2065 13.8255 18.6433 14.0189 19.1809 14.0189C19.5094 14.0189 19.808 13.9061 20.0768 13.6804C20.3456 13.4467 20.5285 13.1686 20.6256 12.8463L22.5742 13.8134C22.4548 14.1116 22.3054 14.3897 22.1263 14.6476C21.9471 14.8974 21.7231 15.1432 21.4543 15.385C21.1855 15.6268 20.8533 15.8202 20.4576 15.9653C20.0693 16.1023 19.6438 16.1708 19.1809 16.1708Z" fill="#84D52C"/>
  <path d="M19.8164 13.8652L22.2204 16.4354L21.4154 17.7462L25.3761 20.8977M25.505 18.8989L25.3571 21.1919M23.3279 21.0733L25.7951 20.763" stroke="#FF6D59" stroke-width="1.06906"/>
</svg>
